<svg xmlns="http://www.w3.org/2000/svg" viewBox="948 1017 23.2 27.6"><defs><style>.a{fill:#fff;}</style></defs><path class="a" d="M4.833,7.9a2.131,2.131,0,0,1,3.152,0L15.8,15.39,23.618,7.9a2.127,2.127,0,0,1,3.148,0,2.377,2.377,0,0,1,0,3.23c-.812.836-9.39,9-9.39,9a2.189,2.189,0,0,1-3.152,0s-8.574-8.168-9.39-9A2.374,2.374,0,0,1,4.833,7.9Z" transform="translate(943.801 1023.8)"/><path class="a" d="M4.833,7.9a2.131,2.131,0,0,1,3.152,0L15.8,15.39,23.618,7.9a2.127,2.127,0,0,1,3.148,0,2.377,2.377,0,0,1,0,3.23c-.812.836-9.39,9-9.39,9a2.189,2.189,0,0,1-3.152,0s-8.574-8.168-9.39-9A2.374,2.374,0,0,1,4.833,7.9Z" transform="translate(943.801 1009.8)"/></svg>