<svg xmlns="http://www.w3.org/2000/svg" viewBox="823.908 2890 76.092 76.1"><defs><style>.a{fill:#ef0d33;}</style></defs><g transform="translate(823.858 2890)"><g transform="translate(0.05)"><path class="a" d="M64.992,11.142a37.926,37.926,0,1,0,8.161,12.1A37.94,37.94,0,0,0,64.992,11.142ZM17.035,8.592c.344-.264.679-.544,1.031-.791a31.826,31.826,0,0,1,5.971-3.213A36.4,36.4,0,0,1,47.671,3.037a20.155,20.155,0,0,0-5.227,3.581,31.442,31.442,0,0,0-6.314-.032,35.446,35.446,0,0,0-13.971,4.436c-2.006-.719-4.6-1.567-5.875-1.982C16.483,9.1,16.9,8.7,17.035,8.592ZM51.692,18.1l-6.506,17.76-15.61,3-12.9-13.324c.871-6.043,5.012-11.4,5.012-11.4a29.979,29.979,0,0,1,7.058-3.477,32.176,32.176,0,0,1,7.665-1.694,29.608,29.608,0,0,1,6.242.088ZM3.191,36.783a34.659,34.659,0,0,0-.28,7.953c-.312-.623-.559-1.151-.743-1.575a36.476,36.476,0,0,1,2.885-20.15,37.843,37.843,0,0,0,.048,6.77A32.293,32.293,0,0,0,3.191,36.783ZM6.348,50.619a33.427,33.427,0,0,1-1.015-5.675A32.021,32.021,0,0,1,5.565,37.1,29.268,29.268,0,0,1,7.028,31.46a24.15,24.15,0,0,1,8.041-4.124L27.729,40.412,26.4,54.743,14.029,58.875A34.189,34.189,0,0,1,6.348,50.619Zm37.6,20.749c-2.758,1.806-9.727,2.238-12.557,2.342a36.3,36.3,0,0,1-16.018-7.385c.04-.072-.336-3.885-.32-5.275l12.5-4.172L41.98,63.119l1.99,8.225ZM67.917,58.715A32.772,32.772,0,0,1,60.1,66.892c-2.9,2.046-6.786,2.75-10.239,3.317-.264.04-3.565.583-3.589.472l-1.99-8.233L54.441,51.874l13.452-1.239c.208,2.142.48,5.267.639,7.178C68.325,58.116,68.125,58.42,67.917,58.715Zm.208-10.758q-.072.12-.144.264l-13.4,1.231-7.21-12.613,6.522-17.8,9.208.583a32.4,32.4,0,0,1,5.163,5.427A29.232,29.232,0,0,1,72.513,33.1C71.49,41.986,69.132,46.414,68.125,47.957Zm4.8-20a31.638,31.638,0,0,0-2.766-4.4A34.36,34.36,0,0,0,64.312,17.5a18.3,18.3,0,0,0-4.532-8.544c.056.04.112.088.168.128.184.136.36.28.544.416A36.476,36.476,0,0,1,72.937,27.879.3.3,0,0,0,72.929,27.959Z" transform="translate(-0.05 0)"/></g></g></svg>