<svg xmlns="http://www.w3.org/2000/svg" viewBox="824 2748 71.146 66.7"><defs><style>.a{fill:#ef0d33;}</style></defs><g transform="translate(824 2732.837)"><path class="a" d="M66.7,15.163V19.61H62.254V15.163H57.807V19.61H53.36V15.163H48.914V28.5L53.36,32.95V50.737H48.914V46.29H40.02v4.447H31.127V46.29H22.234v4.447H17.787V32.95L22.234,28.5V15.163H17.787V19.61H13.34V15.163H8.893V19.61H4.447V15.163H0V28.5L4.447,32.95V81.863H26.68V72.969a8.893,8.893,0,0,1,17.786,0v8.894H66.7V32.95L71.146,28.5V15.163ZM8.893,50.737v-6.67a2.223,2.223,0,0,1,4.447,0v6.67Zm48.913,0v-6.67a2.223,2.223,0,0,1,4.447,0v6.67Z"/></g></svg>