<svg xmlns="http://www.w3.org/2000/svg" viewBox="1235 2901 82.6 66.1"><defs><style>.a{fill:#ef0d33;}</style></defs><path class="a" d="M77.437,58.169H67.112V53.085A5.124,5.124,0,0,0,61.95,48H5.162A5.124,5.124,0,0,0,0,53.085V93.761a5.121,5.121,0,0,0,5.162,5.085H28.394l-5.163,10.169h20.65L38.719,98.846H56.787v10.169A5.121,5.121,0,0,0,61.95,114.1H77.437a5.121,5.121,0,0,0,5.163-5.085V63.254A5.124,5.124,0,0,0,77.437,58.169ZM5.162,88.677V53.085H61.95v5.085a5.124,5.124,0,0,0-5.162,5.085V88.677Zm64.531,20.338a2.543,2.543,0,1,1,2.581-2.542A2.56,2.56,0,0,1,69.694,109.015Zm0-10.169A2.543,2.543,0,1,1,72.275,96.3,2.56,2.56,0,0,1,69.694,98.846Zm7.744-20.338H61.95V73.423H77.437Zm0-10.169H61.95V63.254H77.437Z" transform="translate(1235 2853)"/></svg>