<svg xmlns="http://www.w3.org/2000/svg" viewBox="409 2900 66.3 66.3"><defs><style>.a{fill:#ef0d33;}</style></defs><path class="a" d="M33.15,0A33.15,33.15,0,1,0,66.3,33.15,33.152,33.152,0,0,0,33.15,0Zm3.856,61.869L33.15,58.013l-3.856,3.856A29.027,29.027,0,0,1,4.431,37.006L8.288,33.15,4.431,29.294A29.027,29.027,0,0,1,29.294,4.431L33.15,8.288l3.856-3.856A29.027,29.027,0,0,1,61.869,29.294L58.013,33.15l3.856,3.856A29.031,29.031,0,0,1,37.006,61.869ZM30.22,30.22,50.729,15.571,36.08,36.08,15.571,50.729Z" transform="translate(409 2900)"/></svg>