<svg xmlns="http://www.w3.org/2000/svg" viewBox="1748 1030 36.6 36.6"><defs><style>.a{fill:#fff;}</style></defs><path class="a" d="M18.7.4A18.3,18.3,0,1,0,37,18.7,18.3,18.3,0,0,0,18.7.4ZM17.646,26.556a6.882,6.882,0,0,1-2.865.618h-.246c-.747,0-4.466-.172-4.466-3.559,0-3.328,4.051-3.589,5.292-3.589h.032a2.761,2.761,0,0,1-.568-1.921c-.063,0-.154.008-.267.008a4.063,4.063,0,0,1-2.143-.574,3.4,3.4,0,0,1-1.43-3.086c0-4.062,4.436-4.226,4.48-4.23H19.9v.1c0,.5-.89.593-1.5.675a4.236,4.236,0,0,0-.736.13c1.123.6,1.3,1.542,1.3,2.945A3.725,3.725,0,0,1,17.678,17.1c-.412.368-.734.656-.734,1.043s.442.766.957,1.218A4.587,4.587,0,0,1,19.9,22.816,3.84,3.84,0,0,1,17.646,26.556ZM27.278,18.7H24.419v2.859H22.513V18.7H19.653V16.794h2.859V13.934h1.906v2.859h2.859ZM15.313,20.892c-.1,0-.2,0-.3.011a3.655,3.655,0,0,0-2.192.894,2.241,2.241,0,0,0-.806,1.794c.086,1.355,1.54,2.148,3.307,2.023,1.738-.126,2.9-1.129,2.814-2.484A2.558,2.558,0,0,0,15.313,20.892Zm1.666-7.368c-.461-1.62-1.2-2.1-2.36-2.1a1.431,1.431,0,0,0-.37.051,1.753,1.753,0,0,0-1.121,1.182,3.324,3.324,0,0,0-.046,2.032c.353,1.336,1.3,2.3,2.259,2.3a1.265,1.265,0,0,0,.37-.051C16.758,16.649,17.413,15.051,16.979,13.525Z" transform="translate(1747.6 1029.6)"/></svg>