<svg xmlns="http://www.w3.org/2000/svg" viewBox="394 2759 143.267 44.7"><defs><style>.a{fill:#ef0d33;}</style></defs><g transform="translate(394 2759)"><path class="a" d="M71.729-92.424c-3.677,1.242-4.585,1.385-5.349.907a6.371,6.371,0,0,0-2.818-.573c-1.194,0-1.958-.239-2.149-.716-.143-.43-.86-.716-1.719-.716q-1.433,0-1.433.716c0,.525-.525.716-2.053.716a5.161,5.161,0,0,0-2.483.43c-.287.287-1.767.287-3.82.048-1.815-.239-5.11-.43-7.259-.478H38.682v5.826l6.113-.334a34.491,34.491,0,0,0,7.116-.812c.812-.382,1.194-.334,1.767.239,1.385,1.385.955,2.245-1.146,2.245-1.576,0-1.91.143-1.91.955,0,.525-.191.955-.43.955s-.525-.43-.669-.955c-.191-.716-.669-.955-1.719-.955-1.146,0-1.48.191-1.48.955,0,.525-.191.955-.478.955-.239,0-.478.43-.478.955,0,.716-.334.955-1.385.955a2.788,2.788,0,0,0-1.671.382,8.354,8.354,0,0,1-2.865,1c-1.433.334-2.722.907-2.865,1.289-.239.573-2.627.621-17.1.382-9.742-.191-17.1-.525-17.431-.764A1.358,1.358,0,0,0,.716-79C.1-78.814,0-77.381,0-70.313v8.4l2.053-.334a7.588,7.588,0,0,0,2.483-.764,2.045,2.045,0,0,1,1.242-.43c.907,0,4.967-4.394,4.967-5.349,0-.478,1.385-.669,5.014-.764,2.913-.1,5.11-.334,5.3-.669.191-.287,3.247-.621,8.023-.764l7.689-.239v2.245c0,1.815.143,2.2.907,2.2.812,0,.86.191.478,2.006a45.434,45.434,0,0,1-2.818,6.925c-2.865,5.826-3.009,7.02-.907,7.736,1.671.573,5.874.669,8.692.239,1.528-.287,1.767-.478,1.767-1.671,0-.716-.191-1.48-.478-1.624a5.226,5.226,0,0,1-.478-2.674c0-2.149.143-2.483,1.433-3.2.764-.43,1.433-1.1,1.433-1.433,0-.43,1.146-.573,4.25-.573H55.3l.86-2.388c1.051-2.865,1.624-3.1,1.289-.478-.239,1.671-.143,1.91.716,1.91.716,0,1.146.573,1.719,2.2a23.21,23.21,0,0,0,5.778,8.787c2.436,2.388,2.245,2.388,6.256-.621l1.958-1.528-2.2-2.865c-2.674-3.486-4.346-7.02-3.486-7.307.669-.191.764-2.77.1-3.2a2.913,2.913,0,0,1-.478-1.862c0-1.671.716-2.2,3.247-2.2.955,0,1.051.239,1.051,2.149,0,1.815.143,2.149.955,2.149.525,0,.955.334.955.716,0,.621,1.719.716,12.655.716s12.655-.1,12.655-.716a.855.855,0,0,1,.907-.716,1.671,1.671,0,0,0,1.242-.478c.191-.287,3.582-.478,8.644-.478h8.357l-.143-3.009-.143-2.961L113.8-73.37c-3.629-.1-4.441-.287-4.441-.86,0-.621.621-.716,4.2-.478,2.292.143,9.885.43,16.953.573l12.751.287v-5.4L131.71-79c-6.4.143-14.04.382-17.049.525-4.2.239-5.54.143-5.826-.334-.716-1.146-.43-1.624.907-1.624,1.1.048,1.289-.143,1.433-1.528l.143-1.528h-4.489c-3.677,0-4.585-.143-4.823-.764-.191-.525-.812-.669-2.053-.573-1.719.143-1.815.239-1.958,1.91l-.143,1.815h-14.8c-14.422,0-14.756,0-14.756-.955,0-.525-.334-.955-.716-.955s-.716-.43-.716-.955a.844.844,0,0,0-.907-.955c-1.289,0-1.1-1.671.239-2.436.86-.43,1.815-.287,5.54.955a22.881,22.881,0,0,0,7.927,1.48h3.438V-94l-3.438.048A24.025,24.025,0,0,0,71.729-92.424Zm-10.315,5.3c1.385,1.385.812,2.2-1.48,2.2-1.767,0-2.149-.143-2.149-.86A2.085,2.085,0,0,1,61.414-87.123Zm13.324,7.45c-.191.287-5.969.478-15.807.478-9.981,0-15.473-.191-15.473-.478s5.587-.478,15.807-.478C69.628-80.151,74.928-80.008,74.737-79.673Zm67.574,2.149c0,.621-1.433.716-10.029.716s-10.029-.1-10.029-.716,1.433-.716,10.029-.716S142.312-78.145,142.312-77.524Zm-68.29.716a.479.479,0,0,1-.478.478.514.514,0,0,1-.478-.478.479.479,0,0,1,.478-.478A.451.451,0,0,1,74.021-76.808Zm42.98,0c0,.287-1.576.478-3.82.478s-3.82-.191-3.82-.478,1.576-.478,3.82-.478S117-77.095,117-76.808ZM36.437-75.232c-.191.621-11.318.478-11.509-.143-.143-.334,1.576-.478,5.731-.382C33.859-75.662,36.485-75.423,36.437-75.232Zm37.584,1.051a.734.734,0,0,1-.716.716c-.764,0-.955-.573-.382-1.1C73.448-75.137,74.021-74.946,74.021-74.181Z" transform="translate(0 94)"/></g></svg>