<svg xmlns="http://www.w3.org/2000/svg" viewBox="706 499 22.921 28.8"><defs><style>.a{fill:#ef0d33;}</style></defs><path class="a" d="M24.96,6.848A7.734,7.734,0,0,0,16.043.324c-4.187.771-7.722,4.137-6.983,8.514a14.331,14.331,0,0,0,1.121,3.475l-7.6,11.347a2.689,2.689,0,0,0-.356,1.676l.489,2.9a.9.9,0,0,0,1.028.755l2.227-.413a2.323,2.323,0,0,0,1.358-.939l3.007-4.865.026-.032,2.036-.376,3.511-5.7a12.417,12.417,0,0,0,3.788-.046C23.878,15.844,25.7,11.225,24.96,6.848ZM21.25,9.092c-1.152,1.719-2.327.508-3.971-.7s-3.137-1.942-1.986-3.661A3.537,3.537,0,0,1,20.357,3.8,3.91,3.91,0,0,1,21.25,9.092Z" transform="translate(703.8 498.8)"/></svg>