<svg xmlns="http://www.w3.org/2000/svg" viewBox="388 1215 205.843 43.9"><defs><style>.a{fill:#ef0d33;}</style></defs><g transform="translate(374.565 972.714)"><path class="a" d="M235.114,242.55c.827-.05,1.641-.263,2.475-.259q12.965.021,25.934,0a2.259,2.259,0,0,1,1.548.508,24.252,24.252,0,0,1,.05,3.253c.078.518-.483.717-.9.643q-12.6,0-25.2,0a5.814,5.814,0,0,0-3.59,1.175,7.336,7.336,0,0,0-2.365,4.961q-.005,10.824,0,21.655a12.532,12.532,0,0,1-3.111,8.3,13.814,13.814,0,0,1-7.972,3.37c-10.071.021-20.146,0-30.221.014-.447-.032-1.339.1-1.19-.646-.043-1.065,0-2.134-.018-3.2l.639-.611c9.183.018,18.367,0,27.554.011a4.842,4.842,0,0,0,3.64-1.832c1.207-1.222,1.5-3.011,1.669-4.645q0-10.856,0-21.712a13.293,13.293,0,0,1,2.092-6.524A11.49,11.49,0,0,1,235.114,242.55Z" transform="translate(-114.226)"/><path class="a" d="M13.739,243.04c17.841.032,35.686,0,53.527.014a11.547,11.547,0,0,1,7.969,3.668,12.564,12.564,0,0,1,.206,15.49,12.278,12.278,0,0,1-8.9,3.96c-12.426-.025-24.855.007-37.28-.014a6.875,6.875,0,0,0-4.13,1.126,6.743,6.743,0,0,0-2.447,4.492c-.032,4.6,0,9.208-.007,13.811.043.44-.362.728-.554,1.083-2.7-.078-5.4.043-8.093-.053-.075-.085-.231-.252-.309-.334-.082-4.237,0-8.477-.036-12.713a11.626,11.626,0,0,1,4.386-9.677,10.444,10.444,0,0,1,5.135-1.879q19.544.016,39.081,0a11.107,11.107,0,0,0,3.438-.636,6.961,6.961,0,0,0,2.94-3.835c.526-2.791.561-5.955-1.172-8.363a5.857,5.857,0,0,0-4.514-2.006c-15.98.014-31.957-.014-47.934.014-.412-.071-1.044.163-1.275-.32A5.927,5.927,0,0,1,13.739,243.04Z" transform="translate(0 -0.486)"/><path class="a" d="M443.311,245.683c1.857-1,3.555-2.546,5.753-2.7,1.818-.316,3.413,1.477,3.583,3.157.018,8.53,0,17.06.007,25.59a24.921,24.921,0,0,0,.309,5.728c2.965.135,5.941.046,8.91.05a7.281,7.281,0,0,1,.32,3.477c.11.774-.81.962-1.392.941-2.631,0-5.259-.011-7.887-.007-.273,1.5-.1,3.107-.455,4.538-2.706.313-5.494.043-8.228.124-.146-.174-.44-.518-.586-.693,0-1.321,0-2.642.032-3.963q-22.868-.027-45.739-.007c-2.127-.032-4.329.227-6.36-.568a1.849,1.849,0,0,1-1.378-1.761,3.707,3.707,0,0,1,1.09-1.765c1.957-1.541,4.2-2.642,6.268-4.016q22.9-14.025,45.753-28.125m-3,6.985q-18.367,11.282-36.705,22.6a9.3,9.3,0,0,0-2.116,1.474c-.43.707.639.629,1.037.636q19.911-.011,39.819,0c.5.018,1.282-.011,1.254-.71.089-6.854.014-13.715.039-20.568a32.1,32.1,0,0,0-.17-5.1A11.254,11.254,0,0,0,440.31,252.668Z" transform="translate(-242.968 -0.426)"/></g></svg>