<svg xmlns="http://www.w3.org/2000/svg" viewBox="1254 2743 76.016 76"><defs><style>.a{fill:#ef0d33;}</style></defs><g transform="translate(1254 2742.954)"><path class="a" d="M74.606,67.836a4.806,4.806,0,0,0-4.286-1.326,35.475,35.475,0,0,0-5.779-7.321,37.843,37.843,0,0,0-6.428-5.249,25.084,25.084,0,0,0,4.646-7.057,2.329,2.329,0,0,0,2.484-.318c.939-.94.58-2.821-.8-4.2s-3.265-1.741-4.2-.8a2.327,2.327,0,0,0-.317,2.485A23.85,23.85,0,0,0,53.439,48.2L9.146,1.551,0,.046,1.676,9.021l46.368,44.6a23.533,23.533,0,0,0-4.028,6.336,2.329,2.329,0,0,0-2.484.316c-.941.94-.581,2.822.8,4.2s3.263,1.741,4.2.8a2.331,2.331,0,0,0,.318-2.486,25.049,25.049,0,0,0,7.056-4.645,37.79,37.79,0,0,0,5.249,6.428,35.617,35.617,0,0,0,7.32,5.779,4.81,4.81,0,1,0,8.129-2.518ZM3.451,9.436l-.995-4.96,2.555,3.4L47.676,50.542Z" transform="translate(0 0)"/></g></svg>