<svg xmlns="http://www.w3.org/2000/svg" viewBox="1799 1029 38.8 38.8"><defs><style>.a{fill:#fff;}</style></defs><path class="a" d="M19.8.4A19.4,19.4,0,1,0,39.2,19.8,19.4,19.4,0,0,0,19.8.4Zm7.891,15.892c.008.166.01.331.01.493a10.864,10.864,0,0,1-16.726,9.156,7.515,7.515,0,0,0,.911.051,7.653,7.653,0,0,0,4.745-1.635,3.829,3.829,0,0,1-3.569-2.651,3.98,3.98,0,0,0,.717.067,3.839,3.839,0,0,0,1.006-.133,3.824,3.824,0,0,1-3.066-3.747v-.046a3.832,3.832,0,0,0,1.732.479,3.829,3.829,0,0,1-1.182-5.1,10.864,10.864,0,0,0,7.875,4,3.767,3.767,0,0,1-.1-.873,3.822,3.822,0,0,1,6.61-2.613,7.674,7.674,0,0,0,2.425-.928A3.839,3.839,0,0,1,27.4,14.918a7.676,7.676,0,0,0,2.195-.6A7.747,7.747,0,0,1,27.691,16.292Z" transform="translate(1798.6 1028.6)"/></svg>