<svg xmlns="http://www.w3.org/2000/svg" viewBox="1781 93.131 20.165 20.57"><defs><style>.a{fill:#ef0d33;}</style></defs><path class="a" d="M8.534,2.222A3.161,3.161,0,0,0,7.146,4.914c.072.81.249,1.864.249,1.864s-.351.177-.351.888c.122,1.785.765,1.014.9,1.8.318,1.886,1.045,1.55,1.045,2.579,0,1.714-.762,2.515-3.14,3.465S1,17.662,1,19.741V20.78H21.165V19.741c0-2.079-2.461-3.279-4.848-4.233s-3.138-1.75-3.138-3.465c0-1.029.725-.693,1.044-2.579.133-.783.775-.012.9-1.8,0-.711-.352-.888-.352-.888s.177-1.054.248-1.864A3.232,3.232,0,0,0,12.441,1.7c-.373-.353-.625-.916.522-1.48C10.454.108,9.87,1.326,8.534,2.222Z" transform="translate(1780 92.92)"/></svg>