<svg xmlns="http://www.w3.org/2000/svg" viewBox="885 1215 149.006 43.991"><defs><style>.a{fill:#ef0d33;}</style></defs><g transform="translate(885.006 1214.988)"><path class="a" d="M149,43.048,132.707,21,147.56.967h-5.547l-12.08,16.344L117.855.967h-5.546L127.135,21,110.9,43.048h5.574l13.466-18.255,13.52,18.255H149m-110.875,0L21.886,21,36.712.967H31.166L19.086,17.31,7.007.967H1.434L16.287,21-.006,43.048H5.567l13.52-18.255L32.552,43.048h5.573"/><path class="a" d="M57.618,38.67H45.192V23.36H57.618c4.746,0,10.346,1.274,10.346,7.324,0,6.925-6.48,7.986-10.346,7.986ZM45.192,5.371H57.618c3.36,0,8.986.85,8.986,6.686,0,4.431-3.28,7.058-8.986,7.058H45.192Zm23.865,17.22a10.78,10.78,0,0,0-2.773-1.751A9.523,9.523,0,0,0,71.35,12.4C71.35,9.722,70.364.94,57.618.94H40.472V19.09H34.766c-.774.955-2.454,3.263-3.094,4.218H40.5V43.022H57.619c9.333,0,15.119-4.7,15.119-12.284a10.367,10.367,0,0,0-3.68-8.146m26,16.928c-9.066,0-15.413-7.218-15.413-17.54S85.99,4.443,95.056,4.443a14.5,14.5,0,0,1,10.966,4.8c2.678,2.882,4.366,7.4,4.366,12.742,0,10.348-6.293,17.538-15.332,17.538Zm0-39.508c-11.92,0-20.213,9.047-20.213,22s8.293,22,20.213,22c11.84,0,20.132-9.048,20.132-22,0-12.974-8.293-22-20.132-22"/></g></svg>